<svg width="122" height="122" viewBox="0 0 122 122" fill="none" xmlns="http://www.w3.org/2000/svg">
<path fill-rule="evenodd" clip-rule="evenodd" d="M103.025 61.0966C104.639 61.3252 105.796 62.7671 105.611 64.3172C104.779 71.2808 101.521 78.8577 96.7205 85.4059C91.9175 91.957 85.4075 97.6987 77.8565 100.769C76.3774 101.37 74.6342 100.685 73.9629 99.2383C73.2916 97.7916 73.9465 96.1312 75.4255 95.5297C81.771 92.9496 87.5181 87.9835 91.8817 82.0318C96.2474 76.0772 99.066 69.3562 99.7675 63.4893C99.9528 61.9393 101.411 60.868 103.025 61.0966Z" fill="#F67D0E"/>
<path fill-rule="evenodd" clip-rule="evenodd" d="M47.0198 17.1193C46.3559 15.6748 44.6432 15.0575 43.1943 15.7406C34.4985 19.8406 22.4529 29.4744 18.263 45.6311C17.8608 47.1821 18.7848 48.7511 20.3269 49.1357C21.8691 49.5203 23.4452 48.5748 23.8475 47.0239C27.478 33.024 37.9784 24.5645 45.5985 20.9717C47.0474 20.2886 47.6837 18.5638 47.0198 17.1193Z" fill="#F67D0E"/>
<path fill-rule="evenodd" clip-rule="evenodd" d="M101.298 46.1804C102.835 45.7599 103.735 44.171 103.307 42.6316C101.976 37.8408 98.6277 31.837 93.9162 26.5695C89.1926 21.2883 82.8702 16.4918 75.4296 14.4749C73.8876 14.0569 72.3046 14.9666 71.8938 16.5067C71.483 18.0468 72.4 19.6342 73.942 20.0522C79.9761 21.6878 85.3845 25.6791 89.617 30.4111C93.8617 35.1568 96.6945 40.3914 97.7398 44.1544C98.1675 45.6938 99.7605 46.6009 101.298 46.1804Z" fill="#F67D0E"/>
<path d="M95.0068 57.5349C95.0068 76.3105 79.7759 91.5313 60.9876 91.5313C42.1993 91.5313 26.9684 76.3105 26.9684 57.5349C26.9684 38.7592 42.1993 23.5385 60.9876 23.5385C79.7759 23.5385 95.0068 38.7592 95.0068 57.5349Z" fill="white"/>
<path fill-rule="evenodd" clip-rule="evenodd" d="M61.0518 85.7523C76.6521 85.7523 89.2921 73.1153 89.2921 57.5349C89.2921 41.9544 76.6521 29.3174 61.0518 29.3174C45.4515 29.3174 32.8115 41.9544 32.8115 57.5349C32.8115 73.1153 45.4515 85.7523 61.0518 85.7523ZM61.0518 91.5313C79.8401 91.5313 95.071 76.3105 95.071 57.5349C95.071 38.7592 79.8401 23.5385 61.0518 23.5385C42.2635 23.5385 27.0326 38.7592 27.0326 57.5349C27.0326 76.3105 42.2635 91.5313 61.0518 91.5313Z" fill="#232323"/>
<path d="M77.622 57.9487L69.0557 54.5753V49.9556L81.8978 56.0211V59.9262L69.0557 66.0083V61.3719L77.622 57.9487Z" fill="#212121"/>
<path d="M59.2194 70.6904H55.64L64.5635 44.3694H68.1429L59.2194 70.6904Z" fill="#212121"/>
<path d="M44.4719 57.0544L52.9737 60.3946V65.0475L40.1316 58.9821V55.0603L52.9737 48.9949V53.6478L44.4719 57.0544Z" fill="#212121"/>
<path d="M72.1893 100.583C72.1893 103.478 69.8326 105.826 66.9255 105.826C64.0184 105.826 61.6617 103.478 61.6617 100.583C61.6617 97.6871 64.0184 95.3398 66.9255 95.3398C69.8326 95.3398 72.1893 97.6871 72.1893 100.583Z" fill="white"/>
<path d="M24.9053 56.5968C24.9053 59.614 22.5486 62.06 19.6415 62.06C16.7344 62.06 14.3777 59.614 14.3777 56.5968C14.3777 53.5796 16.7344 51.1337 19.6415 51.1337C22.5486 51.1337 24.9053 53.5796 24.9053 56.5968Z" fill="white"/>
<path fill-rule="evenodd" clip-rule="evenodd" d="M22.4011 56.5968C22.4011 58.3195 21.0787 59.5558 19.6415 59.5558C18.2043 59.5558 16.8819 58.3195 16.8819 56.5968C16.8819 54.8741 18.2043 53.6379 19.6415 53.6379C21.0787 53.6379 22.4011 54.8741 22.4011 56.5968ZM22.6155 61.1051C23.9983 60.1206 24.9053 58.4686 24.9053 56.5968C24.9053 53.5796 22.5486 51.1337 19.6415 51.1337C16.7344 51.1337 14.3777 53.5796 14.3777 56.5968C14.3777 58.5388 15.354 60.2441 16.825 61.2129C18.638 84.8453 36.3904 103.346 62.7291 103.748C63.6903 105.01 65.2123 105.826 66.9255 105.826C69.8327 105.826 72.1893 103.478 72.1893 100.583C72.1893 97.6871 69.8327 95.3398 66.9255 95.3398C64.9775 95.3398 63.2765 96.3939 62.3663 97.9606C39.5026 97.3991 24.3423 81.5601 22.6155 61.1051ZM66.9255 103.321C68.459 103.321 69.6851 102.086 69.6851 100.583C69.6851 99.0796 68.459 97.844 66.9255 97.844C65.392 97.844 64.1659 99.0796 64.1659 100.583C64.1659 102.086 65.392 103.321 66.9255 103.321Z" fill="#F67D0E"/>
<path d="M56.1199 15.6995C56.1199 16.8874 55.1569 17.8505 53.9689 17.8505C52.7809 17.8505 51.8178 16.8874 51.8178 15.6995C51.8178 14.5115 52.7809 13.5484 53.9689 13.5484C55.1569 13.5484 56.1199 14.5115 56.1199 15.6995Z" fill="#232323"/>
<path d="M63.3757 15.0574C63.3757 16.2454 62.4127 17.2084 61.2247 17.2084C60.0367 17.2084 59.0736 16.2454 59.0736 15.0574C59.0736 13.8694 60.0367 12.9063 61.2247 12.9063C62.4127 12.9063 63.3757 13.8694 63.3757 15.0574Z" fill="#232323"/>
<path d="M70.5031 15.8279C70.5031 17.0159 69.54 17.979 68.3521 17.979C67.1641 17.979 66.201 17.0159 66.201 15.8279C66.201 14.6399 67.1641 13.6769 68.3521 13.6769C69.54 13.6769 70.5031 14.6399 70.5031 15.8279Z" fill="#232323"/>
<path d="M105.755 50.0521C105.755 51.24 104.792 52.2031 103.604 52.2031C102.416 52.2031 101.453 51.24 101.453 50.0521C101.453 48.8641 102.416 47.901 103.604 47.901C104.792 47.901 105.755 48.8641 105.755 50.0521Z" fill="#232323"/>
<path d="M106.204 56.9868C106.204 58.1748 105.227 59.1379 104.021 59.1379C102.815 59.1379 101.838 58.1748 101.838 56.9868C101.838 55.7988 102.815 54.8358 104.021 54.8358C105.227 54.8358 106.204 55.7988 106.204 56.9868Z" fill="#232323"/>
</svg>
