<svg width="227" height="227" viewBox="0 0 227 227" fill="none" xmlns="http://www.w3.org/2000/svg">
<path d="M37.6434 192.431L21.281 8.91992H201.071L184.686 192.401L111.067 212.813L37.6434 192.431Z" fill="#D9D9D9"/>
<path d="M111.18 197.214L170.673 180.721L184.669 23.9275H111.18V197.214Z" fill="#D9D9D9"/>
<path d="M111.178 91.9841H81.3956L79.3421 68.937H111.178V46.4287H54.7439L55.2828 52.4727L60.8097 114.492H111.178V91.9841V91.9841ZM111.178 150.436L111.077 150.465L86.0123 143.7L84.4103 125.75H61.8146L64.9677 161.082L111.077 173.883L111.178 173.854V150.436Z" fill="#EBEBEB"/>
<path d="M111.096 91.9841V114.492H138.811L136.204 143.685L111.096 150.458V173.876L157.241 161.082L157.576 157.281L162.863 98.0281L163.416 91.9841H111.096V91.9841ZM111.096 46.4287V68.937H165.462L165.914 63.8834L166.94 52.4727L167.479 46.4287H111.096V46.4287Z" fill="white"/>
</svg>
