<svg width="193" height="195" viewBox="0 0 193 195" fill="none" xmlns="http://www.w3.org/2000/svg">
<path d="M187.17 22.0846L134.602 31.6661L143.737 0L70.7881 14.2941L69.6516 33.4852L5.73948 22.0615C1.33772 21.8053 -1.22716 24.9663 0.590389 29.3552L93.0807 191.549C95.0715 194.798 99.6548 194.925 101.664 191.549L192.357 29.3396C194.403 25.6727 191.267 21.3744 187.17 22.0846ZM97.354 187.102L6.77218 28.2546L69.2999 39.4309L66.3522 89.2145L91.9828 83.2995L84.8362 118.295L104.305 112.38L94.6436 159.144C94.1623 162.202 98.1457 163.829 100.116 159.452L157.045 45.8393L128.95 51.2616L132.772 38.012L186.173 28.2785L97.354 187.102Z" fill="#D9D9D9"/>
</svg>
