<svg width="197" height="222" viewBox="0 0 197 222" fill="none" xmlns="http://www.w3.org/2000/svg">
<path d="M98.1223 221.13C95.0751 221.13 92.2311 220.318 89.5902 218.896L62.5706 202.847C58.5077 200.612 60.5391 199.8 61.758 199.393C67.2429 197.565 68.2586 197.159 73.9466 193.908C74.5568 193.501 75.3694 193.704 75.9781 194.111L96.7002 206.503C97.5128 206.91 98.5285 206.91 99.138 206.503L180.196 159.576C181.009 159.169 181.415 158.357 181.415 157.341V63.6871C181.415 62.6714 181.009 61.8588 180.196 61.4525L99.138 14.7272C98.3254 14.3209 97.3097 14.3209 96.7002 14.7272L15.6421 61.4533C14.8295 61.8596 14.4232 62.8753 14.4232 63.6879V157.341C14.4232 158.154 14.8295 159.169 15.6421 159.576L37.7863 172.374C49.7725 178.468 57.2881 171.358 57.2881 164.248V71.8128C57.2881 70.594 58.3046 69.3751 59.7266 69.3751H70.0877C71.3065 69.3751 72.5254 70.3908 72.5254 71.8128V164.247C72.5254 180.296 63.7894 189.641 48.5529 189.641C43.8806 189.641 40.224 189.641 29.8637 184.562L8.53204 172.374C3.2503 169.326 0 163.638 0 157.543V63.891C0 57.7967 3.2503 52.1087 8.53204 49.0607L89.5902 2.13301C94.6688 -0.711003 101.576 -0.711003 106.654 2.13301L187.712 49.0607C192.994 52.1079 196.245 57.7959 196.245 63.891V157.544C196.245 163.638 192.994 169.326 187.712 172.374L106.654 219.303C104.013 220.522 100.966 221.13 98.1223 221.13ZM123.11 156.731C87.558 156.731 80.2448 140.479 80.2448 126.665C80.2448 125.446 81.2606 124.227 82.6826 124.227H93.246C94.4649 124.227 95.4814 125.04 95.4814 126.258C97.1065 137.025 101.779 142.308 123.313 142.308C140.378 142.308 147.692 138.448 147.692 129.306C147.692 124.024 145.66 120.164 119.047 117.522C96.9034 115.288 83.0888 110.412 83.0888 92.7389C83.0888 76.2828 96.9026 66.5319 120.063 66.5319C146.066 66.5319 158.865 75.4702 160.49 94.9727C160.49 95.5822 160.287 96.1916 159.88 96.801C159.474 97.2073 158.865 97.6136 158.255 97.6136H147.692C146.675 97.6136 145.66 96.801 145.456 95.7853C143.019 84.6124 136.721 80.9558 120.063 80.9558C101.373 80.9558 99.138 87.4564 99.138 92.3319C99.138 98.2238 101.779 100.051 126.969 103.302C151.958 106.552 163.74 111.225 163.74 128.696C163.537 146.574 148.91 156.731 123.11 156.731Z" fill="#D9D9D9"/>
</svg>
