<svg width="193" height="193" viewBox="0 0 193 193" fill="none" xmlns="http://www.w3.org/2000/svg">
<path d="M96.5 0C149.575 0 193 43.425 193 96.5C193 149.575 149.575 193 96.5 193C43.425 193 0 149.575 0 96.5C0 43.425 43.425 0 96.5 0ZM77.2 128.466C78.4063 133.894 78.4063 138.719 77.2 142.941L76.5969 144.75C76.5969 145.353 75.9938 145.956 75.9938 145.956C74.7875 148.369 73.5813 150.178 71.7719 152.591C66.3438 158.622 58.5031 161.034 54.8844 159.225C51.2656 157.416 53.075 148.369 59.7094 141.734C66.9469 134.497 76.5969 129.672 76.5969 129.672L77.2 128.466V128.466ZM156.813 41.0125C152.591 24.125 124.244 18.0938 97.1031 27.7438C81.4219 33.775 63.9313 42.8219 51.2656 54.2813C36.1875 68.1531 34.3781 80.2156 34.9813 85.0406C38.6 102.531 62.725 114.594 72.9781 123.038C69.9625 124.244 48.25 135.1 43.425 146.559C37.9969 158.622 44.0281 167.066 48.25 167.669C60.9156 171.288 74.1844 164.653 80.8188 154.4C87.4531 144.147 86.85 131.481 83.8344 124.847C88.5261 123.398 93.5134 123.19 98.3094 124.244C115.197 126.053 118.816 136.909 117.609 141.131C116.403 145.353 113.388 147.766 112.181 148.972C110.975 149.575 110.372 150.178 110.975 150.178C110.975 150.781 111.578 150.781 112.784 150.781C113.991 150.781 121.831 147.163 121.831 138.719C122.434 128.466 112.181 117.006 94.6906 117.006C87.4531 117.006 82.6281 117.609 79.6125 118.816C79.6125 118.213 79.0094 118.213 79.0094 118.213C68.1531 106.753 48.25 98.3094 48.8531 82.6281C48.8531 77.2 51.2656 62.1219 87.4531 44.0281C117.006 28.95 141.131 33.1719 145.353 42.2188C151.384 54.8844 132.688 79.0094 101.928 82.6281C89.8656 83.8344 83.8344 79.6125 82.6281 77.8031C80.8188 75.9938 80.8188 75.9938 80.2156 75.9938C79.0094 76.5969 79.6125 77.8031 80.2156 79.0094C81.4219 81.4219 85.0406 85.6438 91.675 88.0563C97.1031 89.8656 110.975 91.0719 127.863 84.4375C146.559 77.2 161.034 57.2969 156.813 40.4094V41.0125Z" fill="#D9D9D9"/>
</svg>
