<svg width="134" height="202" viewBox="0 0 134 202" fill="none" xmlns="http://www.w3.org/2000/svg">
<path d="M33.5003 201.002C51.9924 201.002 67.0006 185.994 67.0006 167.502V134.002H33.5003C15.0081 134.002 0 149.01 0 167.502C0 185.994 15.0081 201.002 33.5003 201.002Z" fill="#D9D9D9"/>
<path d="M0 100.501C0 82.009 15.0081 67.0009 33.5003 67.0009H67.0006V134.001H33.5003C15.0081 134.001 0 118.993 0 100.501Z" fill="#D9D9D9"/>
<path d="M0 33.5008C0 15.0086 15.0081 0.000488281 33.5003 0.000488281H67.0006V67.0011H33.5003C15.0081 67.0011 0 51.9929 0 33.5008Z" fill="#D9D9D9"/>
<path d="M66.9995 0.000366211H100.5C118.992 0.000366211 134 15.0085 134 33.5007C134 51.9928 118.992 67.0009 100.5 67.0009H66.9995V0.000366211Z" fill="#D9D9D9"/>
<path d="M134 100.501C134 118.993 118.992 134.001 100.5 134.001C82.0076 134.001 66.9995 118.993 66.9995 100.501C66.9995 82.009 82.0076 67.0009 100.5 67.0009C118.992 67.0009 134 82.009 134 100.501Z" fill="#D9D9D9"/>
</svg>
