<svg width="225" height="200" viewBox="0 0 225 200" fill="none" xmlns="http://www.w3.org/2000/svg">
<path d="M184.823 64.824C182.431 64.0033 180.018 63.2429 177.588 62.5436C177.996 60.8753 178.372 59.2271 178.706 57.6079C184.183 31.0184 180.602 9.59738 168.371 2.54455C156.644 -4.21675 137.466 2.83345 118.097 19.6902C116.188 21.3544 114.322 23.0667 112.499 24.8252C111.279 23.6558 110.038 22.5092 108.775 21.3858C88.4756 3.36206 68.1284 -4.23431 55.9107 2.83872C44.1943 9.62109 40.725 29.7584 45.6563 54.9578C46.147 57.4535 46.7009 59.9364 47.3177 62.404C44.4375 63.2224 41.6584 64.0935 38.9987 65.0207C15.1989 73.3187 0 86.3223 0 99.8107C0 113.742 16.3167 127.715 41.1052 136.187C43.1148 136.871 45.1412 137.505 47.1825 138.088C46.5195 140.746 45.931 143.422 45.4175 146.112C40.7162 170.875 44.3875 190.536 56.0723 197.275C68.1407 204.235 88.3965 197.082 108.119 179.841C109.719 178.439 111.283 176.998 112.81 175.518C114.784 177.422 116.81 179.271 118.886 181.062C137.992 197.502 156.86 204.14 168.534 197.382C180.591 190.402 184.51 169.281 179.422 143.584C179.021 141.57 178.572 139.567 178.074 137.576C179.497 137.154 180.893 136.72 182.254 136.269C208.024 127.731 224.791 113.928 224.791 99.8107C224.791 86.2732 209.102 73.1817 184.823 64.824V64.824ZM179.234 127.154C178.005 127.561 176.744 127.954 175.458 128.335C172.613 119.329 168.774 109.752 164.076 99.8572C168.559 90.1982 172.251 80.7438 175.016 71.7961C177.316 72.4617 179.547 73.1633 181.698 73.9035C202.5 81.0652 215.188 91.6523 215.188 99.8107C215.188 108.5 201.485 119.781 179.234 127.154V127.154ZM170.002 145.449C172.252 156.811 172.572 167.085 171.082 175.117C169.744 182.334 167.052 187.145 163.722 189.072C156.638 193.173 141.489 187.843 125.15 173.783C123.218 172.117 121.334 170.399 119.498 168.628C125.832 161.701 132.162 153.648 138.341 144.704C149.208 143.74 159.474 142.163 168.785 140.011C169.233 141.813 169.639 143.627 170.002 145.449V145.449ZM76.6363 188.364C69.7152 190.807 64.2025 190.878 60.8701 188.956C53.7796 184.867 50.8318 169.08 54.8526 147.904C55.3305 145.401 55.8778 142.913 56.4937 140.441C65.7014 142.478 75.8934 143.943 86.7861 144.826C93.0065 153.578 99.5193 161.622 106.083 168.666C104.688 170.016 103.26 171.331 101.801 172.611C93.0785 180.234 84.3389 185.643 76.6363 188.364V188.364ZM44.2119 127.101C33.2507 123.354 24.1984 118.485 17.9938 113.172C12.418 108.398 9.60368 103.657 9.60368 99.8107C9.60368 91.6251 21.8065 81.1846 42.1598 74.0888C44.6298 73.2282 47.2149 72.416 49.8975 71.6538C52.7109 80.8035 56.4007 90.3703 60.8535 100.044C56.3427 109.861 52.6003 119.581 49.7597 128.839C47.8964 128.305 46.0466 127.725 44.2119 127.101V127.101ZM55.0809 53.1129C50.8564 31.5233 53.6619 15.2374 60.7226 11.1498C68.2426 6.79627 84.8719 13.0035 102.399 28.5668C103.542 29.5839 104.667 30.6217 105.772 31.6796C99.241 38.6929 92.7879 46.6774 86.6228 55.3775C76.0506 56.3575 65.9306 57.931 56.6263 60.0393C56.0531 57.7442 55.5378 55.4349 55.0809 53.1138V53.1129ZM152.046 77.0567C149.848 73.2607 147.569 69.5124 145.21 65.8145C152.382 66.7216 159.254 67.9254 165.707 69.3971C163.77 75.607 161.355 82.0987 158.513 88.7547C156.435 84.8127 154.279 80.9126 152.046 77.0567V77.0567ZM112.504 38.5428C116.933 43.3415 121.369 48.6988 125.732 54.5117C116.881 54.0937 108.015 54.092 99.1637 54.5065C103.531 48.7471 108.005 43.3969 112.504 38.5428ZM72.7077 77.1226C70.5022 80.9474 68.3863 84.8232 66.3617 88.7467C63.5659 82.1145 61.1731 75.5929 59.2193 69.2953C65.6329 67.8605 72.4724 66.6873 79.5989 65.797C77.2135 69.5174 74.9158 73.2934 72.7077 77.1217V77.1226ZM79.8035 134.508C72.4407 133.686 65.4986 132.573 59.0867 131.177C61.0712 124.767 63.5167 118.107 66.3731 111.332C68.4058 115.259 70.5305 119.137 72.7454 122.963C75.0232 126.897 77.3818 130.75 79.8035 134.508ZM112.769 161.755C108.217 156.844 103.677 151.412 99.2436 145.569C103.548 145.737 107.936 145.824 112.396 145.824C116.978 145.824 121.507 145.721 125.965 145.522C121.587 151.471 117.168 156.911 112.769 161.755ZM158.603 110.986C161.608 117.835 164.141 124.46 166.151 130.761C159.634 132.248 152.597 133.446 145.183 134.335C147.559 130.569 149.859 126.756 152.084 122.897C154.345 118.976 156.519 115.004 158.603 110.986V110.986ZM143.765 118.1C140.36 124.015 136.764 129.818 132.982 135.499C126.13 135.984 119.264 136.225 112.396 136.222C105.4 136.222 98.5956 136.004 92.0432 135.579C88.1623 129.911 84.4972 124.098 81.0557 118.152H81.0566C77.6313 112.238 74.4319 106.197 71.4652 100.04C74.4243 93.8817 77.614 87.8371 81.0276 81.9187L81.0267 81.9196C84.439 75.9997 88.0748 70.2115 91.9265 64.5676C98.6114 64.0618 105.467 63.7984 112.395 63.7984H112.396C119.355 63.7984 126.219 64.0645 132.903 64.5738C136.715 70.2092 140.328 75.9775 143.734 81.8678C147.159 87.7731 150.391 93.7883 153.424 99.9038C150.422 106.082 147.2 112.151 143.765 118.1V118.1ZM163.575 10.8636C171.102 15.2049 174.03 32.7114 169.3 55.6691C168.998 57.1337 168.659 58.6256 168.291 60.1385C158.963 57.9855 148.836 56.3847 138.233 55.3898C132.057 46.594 125.657 38.5972 119.232 31.6743C120.915 30.0512 122.639 28.4702 124.402 26.9327C140.998 12.4907 156.508 6.78837 163.575 10.8636V10.8636ZM112.396 79.7375C123.482 79.7375 132.469 88.7248 132.469 99.8107C132.469 110.897 123.482 119.884 112.396 119.884C101.31 119.884 92.3225 110.897 92.3225 99.8107C92.3225 88.7248 101.31 79.7375 112.396 79.7375V79.7375Z" fill="#D9D9D9"/>
</svg>
