<svg width="193" height="106" viewBox="0 0 193 106" fill="none" xmlns="http://www.w3.org/2000/svg">
<path d="M97.3989 0.000734742C95.7083 -0.0143192 94.0236 0.202019 92.3916 0.643731C90.1572 1.18224 86.7493 3.31217 84.7319 5.32957C81.4365 8.72942 80.7935 10.2244 79.4111 17.1366C78.7681 20.5364 82.7065 28.6302 86.2188 31.0736C89.8357 33.6214 94.9395 35.1084 102.816 35.9603C114.302 37.2463 117.605 41.0722 117.605 53.6186C117.605 64.6862 114.511 67.6601 101.852 68.938C88.1317 70.3205 81.115 75.6413 79.6281 85.9533C78.7761 92.2306 82.9235 100.099 88.6702 102.76C101.747 108.932 113.988 101.168 116.536 85.1094C118.232 74.7893 121.535 71.9119 132.595 71.068C145.358 69.999 151.957 65.6427 154.401 56.705C156.635 48.5068 151.957 39.3682 143.976 36.1773C141.854 35.3254 136.959 34.2644 133.125 33.8384C121.109 32.5524 118.023 30.4306 116.745 22.6664C114.937 11.9203 114.197 10.1119 110.363 5.86808C108.735 4.0353 106.739 2.56572 104.505 1.55486C102.272 0.543994 99.8506 0.0144805 97.3989 0.000734742V0.000734742ZM58.9397 35.0441C57.5977 35.0167 56.257 35.1462 54.9451 35.4299C43.138 37.9858 37.5038 51.9147 44.0945 61.9133C53.5626 76.1717 75.7942 69.573 76.0032 52.4532C76.0997 42.8645 68.1265 35.2289 58.9397 35.0441V35.0441ZM16.7912 70.1195C15.6364 70.1474 14.487 70.2874 13.3592 70.5375C-3.98559 74.3633 -4.62055 99.6813 12.5073 104.15C16.7671 105.316 17.1851 105.316 21.4369 104.255C31.0095 101.699 36.4348 92.5521 33.8869 83.301C31.6525 75.1028 24.6921 69.9266 16.7912 70.1195V70.1195ZM176.126 70.1838C174.253 70.1999 172.292 70.65 169.824 71.4859C158.652 75.3198 154.827 88.3003 161.948 98.2989C166.425 104.681 177.701 106.803 184.613 102.446C195.994 95.4215 195.568 77.8757 183.866 72.3379C180.812 70.8429 178.537 70.1597 176.126 70.1838V70.1838Z" fill="#D9D9D9"/>
</svg>
