<svg width="207" height="207" viewBox="0 0 207 207" fill="none" xmlns="http://www.w3.org/2000/svg">
<path d="M96.7216 0.0556583C96.2768 0.0960881 94.8602 0.237592 93.585 0.338667C64.1846 2.98924 36.6447 18.8506 19.2025 43.2298C9.48966 56.7851 3.27804 72.1613 0.930691 88.448C0.101074 94.1325 0 95.8119 0 103.52C0 111.229 0.101074 112.908 0.930691 118.592C6.55608 157.458 34.2165 190.112 71.7312 202.21C78.4498 204.376 85.5314 205.852 93.585 206.742C96.7216 207.086 110.278 207.086 113.415 206.742C127.316 205.204 139.093 201.765 150.707 195.838C152.488 194.927 152.832 194.684 152.589 194.482C152.427 194.36 144.839 184.184 135.734 171.883L119.182 149.527L98.4414 118.836C87.0289 101.962 77.6404 88.1642 77.5595 88.1642C77.4786 88.144 77.3978 101.781 77.3574 118.431C77.2959 147.585 77.2765 148.758 76.9118 149.446C76.3862 150.437 75.9811 150.842 75.1313 151.287C74.4836 151.611 73.9168 151.671 70.8619 151.671H67.3607L66.4308 151.085C65.8542 150.724 65.3857 150.213 65.0748 149.608L64.6495 148.697L64.6899 108.133L64.7506 67.5483L65.378 66.7591C65.7015 66.3346 66.3896 65.7888 66.8756 65.5252C67.7052 65.1209 68.0286 65.0804 71.529 65.0804C75.6569 65.0804 76.345 65.2422 77.4172 66.4154C77.7212 66.7389 88.951 83.6531 102.387 104.026C115.823 124.399 134.197 152.218 143.221 165.874L159.611 190.698L160.44 190.152C167.786 185.378 175.555 178.58 181.706 171.498C194.798 156.466 203.236 138.137 206.069 118.593C206.899 112.908 207 111.229 207 103.521C207 95.8119 206.899 94.1333 206.069 88.448C200.444 49.5829 172.784 16.9286 135.269 4.83041C128.651 2.68602 121.61 1.20871 113.718 0.318452C111.776 0.116303 98.401 -0.106061 96.7216 0.0556583V0.0556583ZM139.093 62.6522C140.064 63.1374 140.853 64.0689 141.136 65.04C141.298 65.5656 141.338 76.8148 141.298 102.165L141.238 138.541L134.823 128.709L128.389 118.876V92.4336C128.389 75.3375 128.469 65.7273 128.591 65.2624C128.914 64.1295 129.623 63.2393 130.594 62.7129C131.424 62.2884 131.727 62.2479 134.904 62.2479C137.899 62.2479 138.425 62.2884 139.093 62.6522Z" fill="#D9D9D9"/>
</svg>
