<svg width="193" height="193" viewBox="0 0 193 193" fill="none" xmlns="http://www.w3.org/2000/svg">
<path d="M0 0H193V193H0V0Z" fill="#D9D9D9"/>
<path d="M50.5125 149.861L65.2815 140.922C68.1313 145.974 70.7232 150.249 76.9407 150.249C82.9003 150.249 86.6585 147.918 86.6585 138.85V77.1819H104.795V139.106C104.795 157.891 93.7837 166.442 77.7179 166.442C63.209 166.442 54.7871 158.928 50.5117 149.859L50.5125 149.861ZM114.647 147.917L129.414 139.367C133.302 145.716 138.355 150.379 147.293 150.379C154.809 150.379 159.6 146.622 159.6 141.44C159.6 135.221 154.677 133.018 146.386 129.392L141.853 127.447C128.767 121.878 120.087 114.882 120.087 100.113C120.087 86.5092 130.451 76.1445 146.646 76.1445C158.176 76.1445 166.468 80.1613 172.427 90.655L158.304 99.7245C155.195 94.1538 151.828 91.9517 146.645 91.9517C141.333 91.9517 137.965 95.3201 137.965 99.7245C137.965 105.165 141.333 107.369 149.106 110.738L153.64 112.68C169.057 119.288 177.737 126.024 177.737 141.181C177.737 157.506 164.912 166.444 147.681 166.444C130.84 166.444 119.957 158.412 114.646 147.918" fill="#6A6868"/>
</svg>
