<svg width="193" height="193" viewBox="0 0 193 193" fill="none" xmlns="http://www.w3.org/2000/svg">
<path d="M48.3978 92.6717C47.6439 102.164 55.9832 109.156 61.6744 109.156C67.3736 108.89 89.5697 90.1853 89.5697 90.1853C100.009 76.9825 100.054 71.1118 100.054 66.4976C99.1835 46.1259 62.0687 77.154 48.3978 92.6717V92.6717ZM140.21 84.7866C145.248 74.1241 138.47 62.2813 123.727 72.6833C112.011 80.1297 96.8438 95.4483 89.5848 101.445C86.2178 108.245 94.7528 126.908 108.278 117.055C124.264 105.44 135.939 94.5184 140.21 84.7866V84.7866ZM153.931 20.2854L157.178 0H193V37.0296L179.872 37.1864L164.064 90.7266C165.048 109.622 155.466 109.93 154.242 118.6C151.166 140.392 126.796 158.223 117.479 158.223C111.265 158.043 106.722 150.92 105.196 144.714C122.717 125.335 146.278 110.106 146.278 110.106C147.749 99.9141 144.516 96.6692 155.39 87.9846L165.767 33.4252C156.905 27.573 152.77 27.6638 153.931 20.2854V20.2854ZM84.0115 110.641C93.0969 128.947 106.224 129.425 126.577 106.118C127.061 108.273 127.59 110.53 126.619 115.951C85.2155 152.982 46.2197 189.023 34.3499 193H0V183.787C5.58645 176.04 51.4345 138.225 84.0115 110.641V110.641ZM145.202 146.086C143.338 161.932 128.891 175.797 109.586 193H48.4053L99.983 149.554C108.887 169.817 124.701 166.882 145.202 146.086H145.202ZM72.85 110.119L0 172.213V131.928L42.8709 97.0277C45.1643 110.018 59.2137 121.457 72.85 110.12V110.119Z" fill="#D9D9D9"/>
</svg>
