<svg width="337" height="349" viewBox="0 0 337 349" fill="none" xmlns="http://www.w3.org/2000/svg">
<path d="M144.943 14.0645C159.453 5.40143 177.547 5.40141 192.057 14.0645L292.028 73.7502C305.919 82.0434 314.425 97.0296 314.425 113.208V235.281C314.425 251.459 305.919 266.445 292.028 274.738L192.057 334.424C177.547 343.087 159.453 343.087 144.943 334.424L44.972 274.738C31.0814 266.445 22.5747 251.459 22.5747 235.281V113.208C22.5747 97.0296 31.0814 82.0434 44.972 73.7503L144.943 14.0645Z" fill="#2F2E41"/>
<path d="M100.968 258.626L87.0581 88.6333L253.176 88.9749L238.468 258.626L170.744 278.236L100.968 258.626Z" fill="#1B73BA"/>
<path d="M170.867 261.843V105.076L239.176 105.303L226.995 245.563L170.867 261.843Z" fill="#1C88C7"/>
<path d="M222.21 125.113H117.128L119.975 145.604H169.84L120.772 166.667L123.618 186.476H195.912L193.293 214.139L168.815 218.922L146.616 213.23L144.907 197.518H124.529L127.26 230.193L170.978 242.375L212.875 229.055L218.226 165.186H173.937L222.209 145.149L222.21 125.113Z" fill="white"/>
</svg>
