<svg width="323" height="335" viewBox="0 0 323 335" fill="none" xmlns="http://www.w3.org/2000/svg">
<path d="M138.921 13.4802C152.829 5.177 170.171 5.17702 184.079 13.4802L279.896 70.6865C293.21 78.6351 301.363 92.9987 301.363 108.505V225.507C301.363 241.013 293.21 255.376 279.896 263.325L184.079 320.531C170.171 328.834 152.829 328.834 138.921 320.531L43.1037 263.325C29.7902 255.376 21.6369 241.013 21.6369 225.507V108.505C21.6369 92.9987 29.7902 78.6351 43.1037 70.6865L138.921 13.4802Z" fill="#2F2E41"/>
<path d="M96.2919 245.446L82.5166 90.9512H233.879L220.085 245.422L158.106 262.606L96.2919 245.446Z" fill="#E44F26"/>
<path d="M158.201 249.474L208.288 235.588L220.07 103.586H158.201V249.474Z" fill="#F1662A"/>
<path d="M158.2 160.882H133.126L131.397 141.479H158.2V122.529H110.688L111.142 127.618L115.795 179.831H158.2V160.882V160.882ZM158.2 210.092L158.114 210.116L137.012 204.421L135.664 189.309H116.641L119.295 219.054L158.114 229.832L158.2 229.807V210.092Z" fill="#EBEBEB"/>
<path d="M158.13 160.882V179.831H181.463L179.268 204.409L158.13 210.11V229.826L196.979 219.054L197.261 215.854L201.712 165.97L202.178 160.882H158.13V160.882ZM158.13 122.529V141.479H203.901L204.281 137.224L205.145 127.618L205.599 122.529H158.13V122.529Z" fill="white"/>
</svg>
