<svg width="65" height="39" viewBox="0 0 65 39" fill="none" xmlns="http://www.w3.org/2000/svg">
<path fill-rule="evenodd" clip-rule="evenodd" d="M18.1933 5.70389L18.1928 5.70433L18.1933 5.70389ZM16.3553 2.84809C17.7482 1.49916 19.7689 1.79077 20.8686 3.49941C21.9683 5.20806 21.7306 7.68672 20.3376 9.03566L8.65077 20.3532L21.5524 30.7649C23.035 31.9614 23.4462 34.4056 22.4708 36.2243C21.4954 38.0429 19.5027 38.5473 18.0201 37.3508L1.91287 24.3522C1.73844 24.2115 1.57792 24.0524 1.4324 23.878C1.1566 23.6527 0.905554 23.3719 0.691391 23.0391C-0.408302 21.3304 -0.170574 18.8518 1.22237 17.5029L16.3553 2.84809L17.4274 4.51397L16.3553 2.84809Z" fill="#2F2E41"/>
<path fill-rule="evenodd" clip-rule="evenodd" d="M45.3036 32.7414C44.6471 33.3734 44.5329 34.538 45.0485 35.3427C45.564 36.1474 46.5141 36.2874 47.1705 35.6554L62.6221 20.7802C63.2785 20.1482 63.3927 18.9836 62.8772 18.1789C62.74 17.9648 62.572 17.7977 62.387 17.6798C62.2928 17.5383 62.1799 17.4116 62.0491 17.3055L45.6631 4.01755C44.967 3.45304 44.0293 3.68717 43.5688 4.5405C43.1083 5.39383 43.2993 6.54323 43.9954 7.10775L59.1581 19.4037L45.3036 32.7414Z" fill="black"/>
<path fill-rule="evenodd" clip-rule="evenodd" d="M46.3926 34.4413L46.3931 34.4408L46.3926 34.4413ZM48.2595 37.3552C46.8373 38.7245 44.7788 38.4211 43.6618 36.6776C42.5448 34.9342 42.7923 32.4108 44.2146 31.0416L56.1475 19.5538L43.0226 8.91035C41.5143 7.68723 41.1005 5.19687 42.0983 3.34798C43.0961 1.4991 45.1277 0.991812 46.636 2.21493L63.0219 15.5029C63.1994 15.6468 63.3626 15.8093 63.5105 15.9873C63.7911 16.2176 64.0463 16.5044 64.2639 16.844C65.3809 18.5874 65.1334 21.1108 63.7111 22.48L48.2595 37.3552L47.1705 35.6554L48.2595 37.3552Z" fill="#2F2E41"/>
<path fill-rule="evenodd" clip-rule="evenodd" d="M37.2757 1.2178C38.8523 1.89038 39.6856 4.00232 39.1369 5.93495L30.8141 35.251C30.2654 37.1837 28.5425 38.2051 26.9659 37.5326C25.3893 36.86 24.556 34.7481 25.1047 32.8154L33.4275 3.49934C33.9762 1.56671 35.6991 0.54523 37.2757 1.2178Z" fill="#FC9918"/>
</svg>
