<svg width="676" height="393" viewBox="0 0 676 393" fill="none" xmlns="http://www.w3.org/2000/svg">
<g clip-path="url(#clip0_3_29)">
<path d="M576.781 249.51C577.391 249.355 577.962 249.064 578.451 248.658C578.941 248.252 579.338 247.74 579.615 247.159C579.892 246.577 580.041 245.94 580.053 245.293C580.065 244.646 579.939 244.004 579.684 243.412L590.848 232.662L583.124 230.751L573.706 241.252C572.769 241.76 572.046 242.603 571.672 243.623C571.299 244.643 571.302 245.769 571.681 246.787C572.06 247.805 572.788 248.644 573.728 249.146C574.668 249.648 575.754 249.777 576.781 249.51Z" fill="#FFB6B6"/>
<path d="M582.548 240.851L577.341 233.293L596.899 212.467L601.44 179.642C601.665 178.019 602.233 176.467 603.106 175.096C603.978 173.726 605.133 172.569 606.489 171.71C607.844 170.85 609.367 170.308 610.949 170.123C612.53 169.937 614.132 170.112 615.641 170.635C618.365 171.584 620.612 173.606 621.889 176.258C623.166 178.91 623.37 181.976 622.454 184.782L610.868 220.172L582.548 240.851Z" fill="#E4E4E4"/>
<path d="M619.27 380.718H613.49L610.74 357.765L619.271 357.766L619.27 380.718Z" fill="#FFB6B6"/>
<path d="M622.379 392.017H618.278L617.546 388.03L615.671 392.017H604.793C604.271 392.017 603.764 391.845 603.344 391.527C602.924 391.209 602.613 390.761 602.458 390.249C602.303 389.736 602.311 389.186 602.481 388.679C602.651 388.171 602.974 387.733 603.403 387.428L612.09 381.251V377.221L621.227 377.783L622.379 392.017Z" fill="#2F2E41"/>
<path d="M654.93 374.663L649.853 377.507L636.781 358.699L644.275 354.501L654.93 374.663Z" fill="#FFB6B6"/>
<path d="M662.907 383.057L659.305 385.075L656.811 381.934L657.014 386.358L647.459 391.711C647.001 391.968 646.476 392.067 645.959 391.994C645.443 391.921 644.962 391.681 644.588 391.307C644.214 390.933 643.965 390.446 643.879 389.916C643.793 389.387 643.873 388.843 644.108 388.364L648.871 378.664L647 375.124L655.286 371.121L662.907 383.057Z" fill="#2F2E41"/>
<path d="M621.705 372.545H609.76V328.753L602.365 300.204C597.057 279.786 595.647 258.503 598.211 237.533L598.222 237.448L598.286 237.392C598.476 237.228 617.403 221.116 629.375 233.441C637.445 241.749 629.862 271.623 629.438 273.262V324.761L621.705 372.545Z" fill="#2F2E41"/>
<path d="M621.676 166.062L621.613 165.997L606.382 166.235L598.25 185.884C590.723 197.921 597.92 204.767 598.426 205.852L596.986 220.621L596.059 230.149L594.571 245.49L629.478 233.749L625.594 217.737L630.081 194.639C631.078 189.531 630.832 184.249 629.365 179.263C627.899 174.277 625.257 169.742 621.676 166.062Z" fill="#E4E4E4"/>
<path d="M614.579 328.979L639.118 364.514L648.531 357.624L628.037 314.266L614.579 328.979Z" fill="#2F2E41"/>
<path d="M612.574 162.243C620.34 162.243 626.635 155.762 626.635 147.767C626.635 139.772 620.34 133.291 612.574 133.291C604.808 133.291 598.513 139.772 598.513 147.767C598.513 155.762 604.808 162.243 612.574 162.243Z" fill="#FFB6B6"/>
<path opacity="0.1" d="M626.135 203.769L610.799 221.987L596.06 230.149L596.986 220.621L605.666 215.604L626.135 203.769Z" fill="black"/>
<path d="M602.726 174.895L601.406 168.944C600.973 166.952 600.931 164.891 601.283 162.882C601.635 160.873 602.374 158.957 603.457 157.247C604.451 155.635 605.005 153.776 605.061 151.867C605.117 149.958 604.673 148.069 603.774 146.398C603.111 145.047 602.104 143.907 600.86 143.101C599.616 142.294 598.182 141.851 596.713 141.819H596.361V141.457C596.361 136.266 600.291 132.603 603.944 132.393C604.076 131.312 604.82 130.344 606.115 129.575C609.208 127.739 615.188 127.341 619.707 129.788C619.791 128.997 620.081 128.244 620.546 127.608C621.012 126.973 621.636 126.479 622.352 126.18C623.094 125.914 623.894 125.866 624.661 126.043C624.727 124.742 625.249 123.509 626.13 122.574C627.378 121.329 629.379 120.856 631.622 121.273C634.701 121.849 637.737 123.868 640.169 126.961C642.326 129.703 643.823 132.935 645.271 136.06C646.694 139.134 648.166 142.312 650.3 145.002C652.638 147.95 655.535 149.86 658.457 150.381C661.864 150.988 665.362 149.543 666.962 146.869L667.28 146.338L667.57 146.886C669.368 150.288 668.632 154.961 665.82 157.999C663.299 160.724 659.342 162.112 655.238 161.709C651.764 161.369 648.26 159.849 644.824 157.192C641.41 154.553 639.299 151.636 638.549 148.522C638.339 147.558 638.189 146.582 638.098 145.598C637.866 143.539 637.647 141.594 636.416 140.162C635.31 138.875 633.598 138.317 632.081 137.895L631.783 137.813C631.729 138.393 631.552 138.954 631.265 139.457C630.979 139.959 630.589 140.391 630.124 140.723C629.845 140.896 629.538 141.018 629.218 141.082C630.977 148.373 630.254 153.956 627.066 157.677C621.683 163.96 611.342 162.668 610.904 162.61L610.613 162.571L610.598 162.27C610.559 161.46 610.463 160.654 610.31 159.858C608.829 163.532 603.846 173.248 603.179 174.228L602.726 174.895Z" fill="#2F2E41"/>
<path d="M106.161 198.27C105.75 198.826 105.225 199.284 104.624 199.609C104.023 199.934 103.359 200.12 102.681 200.153C102.002 200.186 101.325 200.065 100.696 199.8C100.068 199.534 99.5039 199.129 99.0437 198.615L83.9002 205.396L85.3752 196.692L99.5296 191.588C100.42 190.849 101.543 190.473 102.686 190.529C103.828 190.586 104.911 191.073 105.728 191.896C106.546 192.72 107.041 193.824 107.121 194.998C107.201 196.173 106.859 197.337 106.161 198.27V198.27Z" fill="#FFB6B6"/>
<path d="M96.0558 200.987L60.8825 217.117L60.807 217.089L20.7184 202.382C17.7323 200.775 15.4558 198.054 14.3549 194.776C13.254 191.498 13.412 187.91 14.7966 184.748C15.5641 183.001 16.6823 181.44 18.0776 180.17C19.4729 178.9 21.1137 177.949 22.892 177.378C24.6703 176.808 26.5458 176.632 28.3949 176.862C30.2441 177.091 32.025 177.722 33.6205 178.711L63.4539 197.213L92.383 193.353L96.0558 200.987Z" fill="#3F3D56"/>
<path d="M110.792 94.7866C97.4951 64.5071 97.9854 26.1264 118.622 0.575226C125.526 36.0061 144.38 67.7809 171.85 90.2777C182.474 98.9143 195.164 107.381 198.067 120.994C199.873 129.464 197.313 138.423 192.887 145.801C188.462 153.179 182.293 159.248 176.194 165.23L175.509 167.277C148.972 148.361 124.089 125.066 110.792 94.7866Z" fill="#24A19C"/>
<path d="M119.196 0.944684C114.447 27.7176 117.975 56.2259 129.518 80.7549C132.014 86.058 134.994 91.214 138.984 95.4792C142.904 99.6059 147.825 102.577 153.238 104.083C158.257 105.591 163.56 106.536 168.136 109.275C172.959 112.161 175.951 117.004 177.117 122.558C178.544 129.354 177.514 136.272 176.278 143.001C174.905 150.473 173.365 158.211 175.354 165.722C175.595 166.632 174.209 166.963 173.968 166.055C170.509 152.987 177.235 140.099 176.295 126.961C175.856 120.831 173.62 114.799 168.515 111.247C164.05 108.141 158.581 107.162 153.487 105.68C148.137 104.123 143.333 101.746 139.245 97.802C135.063 93.7678 131.881 88.7209 129.265 83.5067C123.417 71.6374 119.419 58.8953 117.416 45.7473C115.05 30.7547 115.192 15.4557 117.836 0.512422C118.001 -0.412401 119.359 0.0258907 119.196 0.944684Z" fill="white"/>
<path d="M125.358 72.9856C121.05 74.407 116.392 74.2055 112.215 72.4174C108.038 70.6292 104.614 67.3708 102.556 63.2239C102.142 62.3834 103.391 61.682 103.806 62.5236C105.716 66.3888 108.905 69.4238 112.798 71.0807C116.691 72.7376 121.03 72.9074 125.034 71.5594C125.904 71.2675 126.223 72.6954 125.358 72.9856L125.358 72.9856Z" fill="white"/>
<path d="M150.595 103.663C154.9 95.2371 155.961 85.4507 153.568 76.2549C153.331 75.344 154.716 75.0121 154.954 75.9219C157.426 85.496 156.301 95.678 151.803 104.436C151.374 105.27 150.168 104.493 150.595 103.663Z" fill="white"/>
<path d="M116.879 31.2304C118.657 31.0381 120.36 30.394 121.837 29.3562C123.314 28.3184 124.517 26.9192 125.338 25.2844C125.757 24.4448 126.963 25.2232 126.547 26.0574C125.631 27.8592 124.3 29.4028 122.671 30.5532C121.042 31.7035 119.165 32.4257 117.202 32.6566C117.019 32.6944 116.829 32.6589 116.67 32.5573C116.511 32.4558 116.396 32.2959 116.348 32.1101C116.306 31.921 116.338 31.7226 116.437 31.5579C116.537 31.3931 116.695 31.2755 116.879 31.2304Z" fill="white"/>
<path d="M227.907 0.871826C227.66 1.40377 227.413 1.9357 227.172 2.47851C223.887 9.64773 221.173 17.0799 219.057 24.7016C218.884 25.2882 218.717 25.8853 218.561 26.4758C213.654 44.8942 212.11 64.0905 214.009 83.0891C214.771 90.6483 216.091 98.1369 217.957 105.49C220.535 115.645 224.114 126.444 223.306 136.584C223.234 137.643 223.097 138.696 222.898 139.737L177.988 167.978C177.855 167.989 177.727 168.011 177.593 168.023L175.85 169.235C175.728 168.863 175.61 168.474 175.488 168.101C175.416 167.886 175.354 167.664 175.283 167.448C175.238 167.302 175.194 167.156 175.146 167.027C175.131 166.979 175.116 166.93 175.108 166.892C175.059 166.763 175.028 166.638 174.986 166.52C174.316 164.348 173.66 162.168 173.018 159.979C173.012 159.968 173.012 159.968 173.016 159.952C168.164 143.261 164.624 126.006 163.739 108.746C163.713 108.227 163.68 107.697 163.674 107.165C163.317 99.3833 163.579 91.5843 164.457 83.8461C164.951 79.6106 165.652 75.4035 166.559 71.241C168.923 60.4903 172.914 50.1893 178.387 40.7156C189.3 21.8316 205.958 6.75095 226.345 1.27455C226.867 1.13477 227.379 1.00096 227.907 0.871826Z" fill="#24A19C"/>
<path d="M228.154 1.52213C208.705 19.9551 194.85 44.9042 189.722 71.6443C188.613 77.4254 187.977 83.3893 188.669 89.2677C189.385 94.9924 191.578 100.415 195.018 104.972C198.143 109.288 201.825 113.33 203.877 118.352C206.04 123.646 205.597 129.368 203.28 134.525C200.445 140.836 195.576 145.721 190.654 150.327C185.189 155.443 179.434 160.666 176.629 167.896C176.289 168.772 174.989 168.178 175.328 167.303C180.208 154.725 193.116 148.604 200.049 137.531C203.283 132.364 205.025 126.163 203.026 120.162C201.278 114.914 197.484 110.743 194.283 106.402C190.922 101.843 188.476 96.9671 187.519 91.2843C186.539 85.4712 186.95 79.4692 187.91 73.6842C190.183 60.5828 194.442 47.9307 200.532 36.1914C207.41 22.7538 216.471 10.6265 227.322 0.334354C227.993 -0.302381 228.822 0.889557 228.154 1.52212V1.52213Z" fill="white"/>
<path d="M190.943 62.862C186.673 61.3267 183.071 58.2786 180.782 54.2619C178.493 50.2452 177.665 45.5215 178.446 40.9344C178.607 40.0068 180.015 40.2212 179.854 41.15C179.118 45.4201 179.89 49.8201 182.029 53.556C184.168 57.2918 187.534 60.1174 191.519 61.5227C192.385 61.8291 191.804 63.1667 190.944 62.862H190.943Z" fill="white"/>
<path d="M193.154 102.999C201.518 98.9396 208.089 91.7838 211.556 82.9583C211.899 82.0836 213.2 82.6774 212.857 83.5511C209.232 92.7281 202.38 100.161 193.666 104.365C192.836 104.765 192.327 103.397 193.154 102.999Z" fill="white"/>
<path d="M208.592 24.2672C210.125 25.2157 211.862 25.7576 213.648 25.8441C215.433 25.9307 217.212 25.5593 218.824 24.7632C219.65 24.3524 220.157 25.7212 219.337 26.1293C217.552 27.0003 215.587 27.4081 213.614 27.3169C211.64 27.2258 209.719 26.6385 208.017 25.6064C207.848 25.523 207.717 25.3767 207.65 25.1973C207.582 25.0178 207.584 24.8187 207.654 24.6404C207.731 24.4635 207.873 24.3251 208.049 24.2552C208.224 24.1853 208.42 24.1896 208.592 24.2672Z" fill="white"/>
<path d="M400.102 110.691C386.806 80.4116 387.296 42.0308 407.932 16.4797C414.836 51.9105 433.691 83.6853 461.16 106.182C471.784 114.819 484.475 123.286 487.377 136.898C489.183 145.368 486.623 154.327 482.198 161.705C477.772 169.084 471.603 175.153 465.504 181.134L464.82 183.181C438.282 164.265 413.399 140.971 400.102 110.691Z" fill="#24A19C"/>
<path d="M408.506 16.8491C403.757 43.6221 407.285 72.1303 418.829 96.6594C421.324 101.962 424.304 107.118 428.294 111.384C432.214 115.51 437.136 118.481 442.548 119.987C447.567 121.496 452.871 122.441 457.446 125.179C462.269 128.065 465.262 132.909 466.428 138.463C467.854 145.258 466.824 152.176 465.588 158.906C464.216 166.377 462.676 174.115 464.664 181.626C464.905 182.536 463.519 182.868 463.279 181.959C459.819 168.892 466.546 156.003 465.605 142.865C465.167 136.735 462.931 130.704 457.825 127.152C453.36 124.046 447.892 123.066 442.797 121.584C437.448 120.028 432.643 117.65 428.555 113.706C424.373 109.672 421.191 104.625 418.575 99.4112C412.728 87.5418 408.729 74.7998 406.727 61.6518C404.36 46.6591 404.502 31.3602 407.147 16.4169C407.311 15.492 408.669 15.9303 408.506 16.8491Z" fill="white"/>
<path d="M414.668 88.8901C410.36 90.3114 405.702 90.11 401.525 88.3219C397.348 86.5337 393.925 83.2752 391.866 79.1284C391.452 78.2878 392.702 77.5864 393.116 78.4281C395.026 82.2933 398.215 85.3282 402.108 86.9852C406.001 88.6421 410.341 88.8119 414.345 87.4639C415.215 87.172 415.533 88.5998 414.668 88.8901V88.8901Z" fill="white"/>
<path d="M439.905 119.567C444.21 111.142 445.272 101.355 442.879 92.1594C442.641 91.2485 444.027 90.9165 444.264 91.8263C446.737 101.4 445.612 111.582 441.114 120.34C440.684 121.175 439.478 120.397 439.905 119.567Z" fill="white"/>
<path d="M406.189 47.1349C407.967 46.9425 409.671 46.2985 411.148 45.2606C412.624 44.2228 413.827 42.8237 414.649 41.1888C415.067 40.3492 416.273 41.1277 415.857 41.9618C414.941 43.7637 413.611 45.3072 411.982 46.4576C410.353 47.608 408.475 48.3302 406.513 48.5611C406.329 48.5988 406.139 48.5633 405.98 48.4618C405.822 48.3603 405.706 48.2003 405.658 48.0145C405.616 47.8255 405.648 47.627 405.748 47.4623C405.847 47.2976 406.006 47.1799 406.189 47.1349Z" fill="white"/>
<path d="M517.217 16.7763C516.97 17.3082 516.723 17.8401 516.482 18.383C513.197 25.5522 510.483 32.9843 508.367 40.606C508.194 41.1926 508.028 41.7898 507.872 42.3803C502.964 60.7986 501.42 79.995 503.319 98.9935C504.081 106.553 505.401 114.041 507.267 121.394C509.845 131.549 513.424 142.348 512.617 152.488C512.544 153.547 512.408 154.6 512.208 155.642L467.299 183.882C467.165 183.893 467.038 183.916 466.904 183.927L465.161 185.139C465.039 184.767 464.92 184.378 464.798 184.006C464.726 183.79 464.665 183.568 464.593 183.353C464.549 183.207 464.505 183.061 464.456 182.932C464.441 182.883 464.427 182.835 464.418 182.797C464.37 182.668 464.338 182.543 464.296 182.424C463.626 180.253 462.971 178.072 462.329 175.883C462.322 175.873 462.322 175.873 462.326 175.856C457.475 159.165 453.934 141.91 453.05 124.651C453.023 124.131 452.99 123.602 452.984 123.07C452.628 115.288 452.89 107.489 453.767 99.7506C454.261 95.515 454.963 91.3079 455.87 87.1454C458.233 76.3948 462.225 66.0938 467.698 56.6201C478.611 37.736 495.269 22.6554 515.656 17.179C516.177 17.0392 516.69 16.9054 517.217 16.7763Z" fill="#24A19C"/>
<path d="M517.465 17.4266C498.016 35.8596 484.16 60.8087 479.032 87.5488C477.924 93.3299 477.288 99.2937 477.979 105.172C478.696 110.897 480.888 116.319 484.329 120.877C487.454 125.192 491.136 129.234 493.188 134.256C495.35 139.55 494.908 145.273 492.59 150.43C489.755 156.74 484.887 161.625 479.965 166.232C474.5 171.347 468.744 176.571 465.94 183.8C465.6 184.676 464.3 184.082 464.639 183.207C469.519 170.629 482.426 164.508 489.359 153.435C492.594 148.269 494.336 142.067 492.336 136.066C490.588 130.819 486.794 126.648 483.593 122.306C480.232 117.748 477.787 112.872 476.829 107.189C475.849 101.376 476.26 95.3736 477.221 89.5886C479.493 76.4872 483.752 63.8351 489.842 52.0959C496.721 38.6582 505.781 26.531 516.632 16.2388C517.304 15.6021 518.132 16.794 517.465 17.4266V17.4266Z" fill="white"/>
<path d="M480.254 78.7665C475.983 77.2312 472.382 74.183 470.092 70.1663C467.803 66.1496 466.975 61.426 467.757 56.8389C467.918 55.9113 469.325 56.1256 469.164 57.0544C468.429 61.3245 469.2 65.7246 471.34 69.4604C473.479 73.1963 476.845 76.0219 480.83 77.4272C481.695 77.7336 481.115 79.0711 480.254 78.7665Z" fill="white"/>
<path d="M482.464 118.903C490.829 114.844 497.399 107.688 500.867 98.8628C501.209 97.9881 502.51 98.5819 502.168 99.4555C498.543 108.633 491.69 116.065 482.977 120.27C482.146 120.67 481.638 119.301 482.464 118.903Z" fill="white"/>
<path d="M497.903 40.1717C499.435 41.1202 501.172 41.662 502.958 41.7486C504.744 41.8352 506.523 41.4637 508.135 40.6677C508.96 40.2568 509.468 41.6257 508.647 42.0338C506.862 42.9048 504.897 43.3126 502.924 43.2214C500.951 43.1303 499.029 42.543 497.327 41.5109C497.159 41.4275 497.028 41.2812 496.96 41.1017C496.893 40.9223 496.894 40.7232 496.965 40.5449C497.042 40.368 497.183 40.2295 497.359 40.1596C497.535 40.0897 497.73 40.0941 497.903 40.1717Z" fill="white"/>
<path d="M131.177 309.66H473.28V105.759C473.278 104.231 472.688 102.766 471.639 101.686C470.589 100.606 469.167 99.998 467.683 99.9963H136.774C135.29 99.998 133.867 100.606 132.818 101.686C131.769 102.766 131.178 104.231 131.177 105.759V309.66Z" fill="#CACACA"/>
<path d="M462.71 107.966H141.747V295.559H462.71V107.966Z" fill="white"/>
<path d="M130.879 304.142V329.304C130.879 330.347 131.079 331.38 131.466 332.343C131.854 333.307 132.422 334.183 133.139 334.92C133.855 335.658 134.706 336.243 135.642 336.642C136.578 337.041 137.581 337.247 138.594 337.247H264.862V386.904H263.185C263.053 386.904 262.923 386.931 262.801 386.983C262.679 387.034 262.569 387.11 262.476 387.206C262.383 387.302 262.309 387.416 262.259 387.541C262.208 387.666 262.182 387.8 262.182 387.936V391.39C262.182 391.525 262.208 391.659 262.259 391.785C262.309 391.91 262.383 392.023 262.476 392.119C262.569 392.215 262.679 392.291 262.801 392.343C262.923 392.395 263.053 392.421 263.185 392.421H341.57C341.701 392.421 341.832 392.395 341.953 392.343C342.075 392.291 342.185 392.215 342.279 392.119C342.372 392.023 342.445 391.91 342.496 391.785C342.546 391.659 342.572 391.525 342.572 391.39V387.936C342.572 387.8 342.546 387.666 342.496 387.541C342.445 387.416 342.372 387.302 342.279 387.206C342.185 387.11 342.075 387.034 341.953 386.983C341.832 386.931 341.701 386.904 341.57 386.904H339.892V337.247H466.16C467.173 337.247 468.176 337.041 469.113 336.642C470.049 336.243 470.899 335.658 471.616 334.92C472.332 334.183 472.9 333.307 473.288 332.343C473.676 331.38 473.875 330.347 473.875 329.304V304.142L130.879 304.142Z" fill="#3F3D56"/>
<path d="M241.551 200.738H163.334C162.789 200.737 162.266 200.514 161.881 200.117C161.496 199.721 161.279 199.183 161.278 198.621V165.948C161.279 165.387 161.496 164.849 161.881 164.452C162.266 164.055 162.789 163.832 163.334 163.831H241.551C242.096 163.832 242.618 164.055 243.004 164.452C243.389 164.849 243.606 165.387 243.607 165.948V198.621C243.606 199.183 243.389 199.721 243.004 200.117C242.618 200.514 242.096 200.737 241.551 200.738Z" fill="#6C63FF"/>
<path d="M234.103 216.412H170.782C170.127 216.412 169.5 216.144 169.037 215.668C168.575 215.191 168.315 214.545 168.315 213.872C168.315 213.198 168.575 212.552 169.037 212.076C169.5 211.599 170.127 211.332 170.782 211.332H234.103C237.285 211.286 237.316 216.458 234.103 216.412Z" fill="#E4E4E4"/>
<path d="M234.103 228.053H170.782C170.127 228.053 169.5 227.785 169.037 227.309C168.575 226.832 168.315 226.186 168.315 225.513C168.315 224.839 168.575 224.193 169.037 223.717C169.5 223.24 170.127 222.973 170.782 222.973H234.103C237.285 222.927 237.316 228.099 234.103 228.053Z" fill="#E4E4E4"/>
<path d="M234.103 239.694H170.782C170.127 239.694 169.5 239.426 169.037 238.95C168.575 238.473 168.315 237.827 168.315 237.154C168.315 236.48 168.575 235.834 169.037 235.358C169.5 234.881 170.127 234.614 170.782 234.614H234.103C237.285 234.568 237.316 239.74 234.103 239.694Z" fill="#E4E4E4"/>
<path d="M341.337 200.738H263.12C262.575 200.737 262.052 200.514 261.667 200.117C261.282 199.721 261.065 199.183 261.064 198.621V165.948C261.065 165.387 261.282 164.849 261.667 164.452C262.052 164.055 262.575 163.832 263.12 163.831H341.337C341.882 163.832 342.404 164.055 342.79 164.452C343.175 164.849 343.392 165.387 343.392 165.948V198.621C343.392 199.183 343.175 199.721 342.79 200.117C342.404 200.514 341.882 200.737 341.337 200.738Z" fill="#FC9918"/>
<path d="M333.889 216.412H270.568C269.913 216.412 269.286 216.144 268.823 215.668C268.361 215.191 268.101 214.545 268.101 213.872C268.101 213.198 268.361 212.552 268.823 212.076C269.286 211.599 269.913 211.332 270.568 211.332H333.889C337.071 211.286 337.102 216.458 333.889 216.412Z" fill="#E4E4E4"/>
<path d="M333.889 228.053H270.568C269.913 228.053 269.286 227.785 268.823 227.309C268.361 226.832 268.101 226.186 268.101 225.513C268.101 224.839 268.361 224.193 268.823 223.717C269.286 223.24 269.913 222.973 270.568 222.973H333.889C337.071 222.927 337.102 228.099 333.889 228.053Z" fill="#E4E4E4"/>
<path d="M333.889 239.694H270.568C269.913 239.694 269.286 239.426 268.823 238.95C268.361 238.473 268.101 237.827 268.101 237.154C268.101 236.48 268.361 235.834 268.823 235.358C269.286 234.881 269.913 234.614 270.568 234.614H333.889C337.071 234.568 337.102 239.74 333.889 239.694Z" fill="#E4E4E4"/>
<path d="M441.123 200.738H362.906C362.361 200.737 361.838 200.514 361.453 200.117C361.068 199.721 360.851 199.183 360.85 198.621V165.948C360.851 165.387 361.068 164.849 361.453 164.452C361.838 164.055 362.361 163.832 362.906 163.831H441.123C441.668 163.832 442.19 164.055 442.576 164.452C442.961 164.849 443.178 165.387 443.179 165.948V198.621C443.178 199.183 442.961 199.721 442.576 200.117C442.19 200.514 441.668 200.737 441.123 200.738Z" fill="#6C63FF"/>
<path d="M433.675 216.412H370.354C369.699 216.412 369.072 216.144 368.609 215.668C368.147 215.191 367.887 214.545 367.887 213.872C367.887 213.198 368.147 212.552 368.609 212.076C369.072 211.599 369.699 211.332 370.354 211.332H433.675C436.857 211.286 436.888 216.458 433.675 216.412Z" fill="#E4E4E4"/>
<path d="M433.675 228.053H370.354C369.7 228.051 369.074 227.783 368.612 227.307C368.15 226.831 367.891 226.186 367.891 225.513C367.891 224.84 368.15 224.194 368.612 223.718C369.074 223.242 369.7 222.974 370.354 222.973H433.675C436.857 222.927 436.888 228.099 433.675 228.053Z" fill="#E4E4E4"/>
<path d="M433.675 239.694H370.354C369.699 239.694 369.072 239.426 368.609 238.95C368.147 238.473 367.887 237.827 367.887 237.154C367.887 236.48 368.147 235.834 368.609 235.358C369.072 234.881 369.699 234.614 370.354 234.614H433.675C436.857 234.568 436.888 239.74 433.675 239.694Z" fill="#E4E4E4"/>
<path d="M574.777 164.273L574.991 205.226L575.863 205.175L576.691 220.337L575.073 220.429L575.118 229.537L576.414 229.511L576.676 244.686L575.201 244.714L575.903 378.352C575.919 381.851 574.585 385.213 572.194 387.701C569.804 390.189 566.553 391.599 563.154 391.621L419.764 392.421C416.364 392.437 413.098 391.064 410.681 388.603C408.265 386.142 406.896 382.795 406.874 379.296L405.748 165.217C405.733 161.717 407.067 158.355 409.457 155.867C411.847 153.379 415.099 151.969 418.498 151.947L561.888 151.147C565.286 151.132 568.552 152.506 570.968 154.967C573.384 157.427 574.754 160.774 574.777 164.273Z" fill="#3F3D56"/>
<path d="M563.362 383.202L419.466 384.005C418.419 384.01 417.412 383.587 416.667 382.828C415.922 382.07 415.5 381.038 415.493 379.959L414.358 164.457C414.354 163.379 414.765 162.342 415.502 161.575C416.239 160.809 417.241 160.374 418.288 160.367L562.184 159.564C563.231 159.559 564.238 159.982 564.983 160.741C565.728 161.499 566.15 162.531 566.157 163.61L567.292 379.112C567.296 380.19 566.885 381.227 566.148 381.994C565.411 382.76 564.409 383.195 563.362 383.202Z" fill="white"/>
<path d="M489.668 156.713C490.27 156.713 490.758 156.21 490.758 155.59C490.758 154.97 490.27 154.467 489.668 154.467C489.065 154.467 488.577 154.97 488.577 155.59C488.577 156.21 489.065 156.713 489.668 156.713Z" fill="white"/>
<path d="M532.466 220.22H449.184C448.604 220.22 448.047 219.982 447.637 219.56C447.226 219.137 446.996 218.564 446.995 217.967V183.177C446.996 182.58 447.226 182.007 447.637 181.585C448.047 181.162 448.604 180.925 449.184 180.924H532.466C533.046 180.924 533.603 181.162 534.013 181.585C534.424 182.007 534.654 182.58 534.655 183.177V217.967C534.654 218.564 534.424 219.137 534.013 219.56C533.603 219.982 533.046 220.22 532.466 220.22Z" fill="#FC9918"/>
<path d="M524.536 236.909H457.114C456.417 236.909 455.749 236.624 455.257 236.117C454.764 235.61 454.487 234.922 454.487 234.205C454.487 233.487 454.764 232.8 455.257 232.292C455.749 231.785 456.417 231.5 457.114 231.5H524.536C527.924 231.452 527.958 236.958 524.536 236.909Z" fill="#E4E4E4"/>
<path d="M524.536 249.304H457.114C456.418 249.303 455.751 249.017 455.259 248.51C454.768 248.003 454.491 247.316 454.491 246.6C454.491 245.883 454.768 245.196 455.259 244.689C455.751 244.182 456.418 243.896 457.114 243.895H524.536C527.924 243.847 527.958 249.353 524.536 249.304Z" fill="#E4E4E4"/>
<path d="M524.536 261.699H457.114C456.417 261.699 455.749 261.414 455.257 260.907C454.764 260.4 454.487 259.712 454.487 258.995C454.487 258.277 454.764 257.589 455.257 257.082C455.749 256.575 456.417 256.29 457.114 256.29H524.536C527.924 256.241 527.958 261.748 524.536 261.699Z" fill="#E4E4E4"/>
<path d="M532.466 321.167H449.184C448.604 321.166 448.047 320.928 447.637 320.506C447.226 320.083 446.996 319.51 446.995 318.913V284.124C446.996 283.526 447.226 282.953 447.637 282.531C448.047 282.108 448.604 281.871 449.184 281.87H532.466C533.046 281.871 533.603 282.108 534.013 282.531C534.424 282.953 534.654 283.526 534.655 284.124V318.913C534.654 319.51 534.424 320.083 534.013 320.506C533.603 320.928 533.046 321.166 532.466 321.167Z" fill="#6C63FF"/>
<path d="M524.536 337.855H457.114C456.417 337.855 455.749 337.57 455.257 337.063C454.764 336.556 454.487 335.868 454.487 335.151C454.487 334.434 454.764 333.746 455.257 333.239C455.749 332.731 456.417 332.447 457.114 332.447H524.536C527.924 332.398 527.958 337.904 524.536 337.855Z" fill="#E4E4E4"/>
<path d="M524.536 350.25H457.114C456.418 350.249 455.751 349.963 455.259 349.456C454.768 348.949 454.491 348.262 454.491 347.546C454.491 346.829 454.768 346.142 455.259 345.635C455.751 345.128 456.418 344.843 457.114 344.841H524.536C527.924 344.793 527.958 350.299 524.536 350.25Z" fill="#E4E4E4"/>
<path d="M524.536 362.645H457.114C456.417 362.645 455.749 362.36 455.257 361.853C454.764 361.346 454.487 360.658 454.487 359.941C454.487 359.223 454.764 358.536 455.257 358.028C455.749 357.521 456.417 357.236 457.114 357.236H524.536C527.924 357.188 527.958 362.694 524.536 362.645Z" fill="#E4E4E4"/>
<path d="M162.434 381.905L162.157 263.884L163.202 263.881L163.151 242.174L162.106 242.177L162.021 205.941C162.018 204.588 161.756 203.248 161.25 201.999C160.744 200.75 160.004 199.616 159.072 198.661C158.14 197.706 157.035 196.95 155.819 196.435C154.603 195.92 153.301 195.657 151.986 195.66L77.4917 195.845C76.1771 195.848 74.876 196.118 73.6627 196.639C72.4493 197.16 71.3475 197.922 70.4202 198.881C69.4929 199.84 68.7581 200.978 68.2579 202.23C67.7578 203.481 67.5019 204.822 67.5051 206.176L67.5643 231.442L65.8999 231.484L66.2675 246.661L67.6 246.627L67.6079 249.976L66.1899 250.012L66.5575 265.189L67.6435 265.161L67.9181 382.14C67.9188 383.494 68.1792 384.835 68.6843 386.085C69.1895 387.335 69.9294 388.471 70.8617 389.426C71.794 390.381 72.9003 391.137 74.1171 391.651C75.334 392.166 76.6374 392.427 77.9527 392.421L152.447 392.236C155.101 392.226 157.643 391.133 159.515 389.197C161.387 387.26 162.437 384.638 162.434 381.905Z" fill="#3F3D56"/>
<path d="M75.6748 387.698C74.7457 387.355 73.942 386.725 73.3728 385.895C72.8035 385.064 72.4965 384.074 72.4933 383.057L72.0761 205.236C72.0732 203.926 72.5757 202.669 73.4731 201.741C74.3704 200.812 75.5892 200.289 76.8613 200.286L92.7114 200.246L92.5151 200.745C92.1747 201.61 92.0461 202.548 92.1408 203.476C92.2355 204.405 92.5505 205.295 93.0581 206.068C93.5656 206.842 94.2502 207.475 95.0514 207.912C95.8527 208.349 96.746 208.576 97.6527 208.574L132.829 208.487C133.704 208.408 134.55 208.118 135.296 207.641C136.043 207.164 136.67 206.512 137.127 205.739C137.577 204.979 137.846 204.12 137.912 203.233C137.979 202.346 137.84 201.455 137.509 200.633L137.31 200.135L153.682 200.094C154.954 200.093 156.174 200.611 157.076 201.534C157.977 202.458 158.486 203.712 158.491 205.021L158.889 374.678C158.893 378.152 157.559 381.486 155.178 383.948C152.798 386.41 149.566 387.8 146.191 387.813L77.3017 387.984C76.7474 387.986 76.197 387.889 75.6748 387.698Z" fill="white"/>
<path d="M102.812 204.461C103.415 204.461 103.903 203.958 103.903 203.338C103.903 202.718 103.415 202.216 102.812 202.216C102.21 202.216 101.722 202.718 101.722 203.338C101.722 203.958 102.21 204.461 102.812 204.461Z" fill="white"/>
<path d="M144.968 259.111H88.3714C87.977 259.111 87.5989 258.949 87.32 258.662C87.0411 258.375 86.8842 257.986 86.8838 257.58V233.938C86.8842 233.532 87.0411 233.142 87.32 232.855C87.5989 232.568 87.977 232.407 88.3714 232.406H144.968C145.362 232.407 145.74 232.568 146.019 232.855C146.298 233.142 146.455 233.532 146.455 233.938V257.58C146.455 257.986 146.298 258.375 146.019 258.662C145.74 258.949 145.362 259.111 144.968 259.111Z" fill="#6C63FF"/>
<path d="M139.579 270.452H93.7605C93.5257 270.453 93.2932 270.406 93.0762 270.313C92.8592 270.221 92.662 270.086 92.4959 269.915C92.3297 269.745 92.1979 269.542 92.108 269.319C92.0181 269.095 91.9718 268.856 91.9718 268.615C91.9718 268.373 92.0181 268.134 92.108 267.91C92.1979 267.687 92.3297 267.484 92.4959 267.314C92.662 267.143 92.8592 267.008 93.0762 266.916C93.2932 266.823 93.5257 266.776 93.7605 266.777H139.579C141.881 266.744 141.904 270.486 139.579 270.452Z" fill="#E4E4E4"/>
<path d="M139.579 278.876H93.7605C93.287 278.876 92.833 278.682 92.4982 278.337C92.1634 277.993 91.9753 277.525 91.9753 277.038C91.9753 276.55 92.1634 276.083 92.4982 275.738C92.833 275.394 93.287 275.2 93.7605 275.2H139.579C141.881 275.167 141.904 278.909 139.579 278.876Z" fill="#E4E4E4"/>
<path d="M139.579 287.299H93.7605C93.5257 287.299 93.2932 287.252 93.0762 287.16C92.8592 287.068 92.662 286.933 92.4959 286.762C92.3297 286.591 92.1979 286.388 92.108 286.165C92.0181 285.942 91.9718 285.703 91.9718 285.461C91.9718 285.219 92.0181 284.98 92.108 284.757C92.1979 284.534 92.3297 284.331 92.4959 284.16C92.662 283.99 92.8592 283.854 93.0762 283.762C93.2932 283.67 93.5257 283.623 93.7605 283.623H139.579C141.881 283.59 141.904 287.332 139.579 287.299Z" fill="#E4E4E4"/>
<path d="M144.968 329.958H88.3714C87.977 329.958 87.5989 329.796 87.32 329.509C87.0411 329.222 86.8842 328.833 86.8838 328.427V304.785C86.8842 304.379 87.0411 303.989 87.32 303.702C87.5989 303.415 87.977 303.254 88.3714 303.253H144.968C145.362 303.254 145.74 303.415 146.019 303.702C146.298 303.989 146.455 304.379 146.455 304.785V328.427C146.455 328.833 146.298 329.222 146.019 329.509C145.74 329.796 145.362 329.958 144.968 329.958Z" fill="#FC9918"/>
<path d="M139.579 341.299H93.7605C93.5257 341.3 93.2932 341.253 93.0762 341.161C92.8592 341.068 92.662 340.933 92.4959 340.762C92.3297 340.592 92.1979 340.389 92.108 340.166C92.0181 339.943 91.9718 339.703 91.9718 339.462C91.9718 339.22 92.0181 338.981 92.108 338.757C92.1979 338.534 92.3297 338.332 92.4959 338.161C92.662 337.99 92.8592 337.855 93.0762 337.763C93.2932 337.67 93.5257 337.623 93.7605 337.624H139.579C141.881 337.591 141.904 341.333 139.579 341.299Z" fill="#E4E4E4"/>
<path d="M139.579 349.723H93.7605C93.287 349.723 92.833 349.529 92.4982 349.184C92.1634 348.84 91.9753 348.372 91.9753 347.885C91.9753 347.397 92.1634 346.93 92.4982 346.585C92.833 346.241 93.287 346.047 93.7605 346.047H139.579C141.881 346.014 141.904 349.756 139.579 349.723Z" fill="#E4E4E4"/>
<path d="M139.579 358.146H93.7605C93.5257 358.146 93.2932 358.099 93.0762 358.007C92.8592 357.915 92.662 357.78 92.4959 357.609C92.3297 357.438 92.1979 357.236 92.108 357.012C92.0181 356.789 91.9718 356.55 91.9718 356.308C91.9718 356.067 92.0181 355.827 92.108 355.604C92.1979 355.381 92.3297 355.178 92.4959 355.007C92.662 354.837 92.8592 354.701 93.0762 354.609C93.2932 354.517 93.5257 354.47 93.7605 354.47H139.579C141.881 354.437 141.904 358.179 139.579 358.146Z" fill="#E4E4E4"/>
<path d="M18.4513 385.963L24.6012 385.962L27.5266 361.542H18.4499L18.4513 385.963Z" fill="#FFB6B6"/>
<path d="M16.8826 383.896L18.6135 383.896L25.3715 381.066L28.9935 383.895H28.994C31.0409 383.895 33.004 384.732 34.4514 386.223C35.8988 387.713 36.712 389.734 36.7121 391.841V392.099L16.8829 392.1L16.8826 383.896Z" fill="#2F2E41"/>
<path d="M42.2829 381.973L48.2811 383.368L56.36 360.211L47.5066 358.152L42.2829 381.973Z" fill="#FFB6B6"/>
<path d="M41.1947 379.601L42.8832 379.993L50.0805 378.766L53.0083 382.347L53.0088 382.347C55.0054 382.811 56.7411 384.073 57.8341 385.855C58.9272 387.637 59.288 389.792 58.8372 391.848L58.782 392.1L39.4397 387.604L41.1947 379.601Z" fill="#2F2E41"/>
<path d="M10.6624 236.67C7.77914 245.623 8.08396 255.341 11.3555 265.77L12.754 324.493C12.754 324.493 10.6703 363.002 17.3939 376.553H27.1449L31.9728 320.976L32.5791 283.672L53.4843 315.144L40.1691 375.644L52.1704 376.748L73.7773 311.092L47.1186 247.394L10.6624 236.67Z" fill="#2F2E41"/>
<path d="M48.8574 249.275L13.4004 243.436C12.4705 243.129 11.616 242.619 10.8957 241.94C10.1753 241.262 9.60617 240.43 9.22727 239.504C8.84836 238.577 8.66869 237.578 8.70059 236.573C8.73248 235.568 8.97518 234.582 9.41203 233.683L11.02 230.372L10.3954 195.584C10.3201 191.059 11.4037 186.593 13.5372 182.636C15.6706 178.679 18.7787 175.371 22.5487 173.043L26.0064 170.914L27.7538 166.346L43.8667 166.751L43.9136 172.742L49.6841 182.215L49.6839 182.254L49.3218 233.815L47.7314 239.136L50.1361 245.325L48.8574 249.275Z" fill="#FC9918"/>
<path d="M37.2858 160.665C45.3714 160.665 51.9261 153.917 51.9261 145.593C51.9261 137.269 45.3714 130.521 37.2858 130.521C29.2003 130.521 22.6456 137.269 22.6456 145.593C22.6456 153.917 29.2003 160.665 37.2858 160.665Z" fill="#FFB6B6"/>
<path d="M22.0409 148.879C21.6042 146.985 21.8047 144.32 22.0514 142.413C22.3675 139.898 23.1932 137.48 24.475 135.315C25.7568 133.151 27.4661 131.287 29.4923 129.846C30.2691 129.238 31.1922 128.861 32.1622 128.753C32.647 128.711 33.1323 128.828 33.5485 129.087C33.9648 129.347 34.2907 129.735 34.4796 130.196C34.7238 129.569 35.0903 129 35.5564 128.524C36.0226 128.048 36.5786 127.675 37.19 127.429C38.4183 126.945 39.7393 126.762 41.0483 126.894C43.5855 127.11 46.0187 128.028 48.0898 129.552C50.1609 131.076 51.7926 133.149 52.8116 135.551C53.2027 136.507 54.2949 132.975 54.7903 133.879C55.2456 134.818 56.04 135.536 57.0033 135.88C57.9741 136.159 58.3684 140.277 58.7505 139.317C59.0469 140.026 59.1641 140.802 59.0911 141.571C59.0181 142.339 58.7573 143.077 58.333 143.714C57.9087 144.351 57.3347 144.867 56.6644 145.214C55.9942 145.561 55.2495 145.728 54.4997 145.699C53.5196 145.569 52.5481 145.378 51.5904 145.126C49.8321 144.898 48.0534 145.341 46.5903 146.37C45.1272 147.4 44.0809 148.945 43.649 150.715C43.3817 149.686 42.9548 148.708 42.3847 147.819C42.0954 147.377 41.7076 147.013 41.2538 146.756C40.7999 146.499 40.2931 146.358 39.7754 146.343C39.2806 146.402 38.8026 146.564 38.3708 146.819C37.939 147.075 37.5625 147.418 37.2644 147.829C36.6199 148.608 36.1358 149.517 35.4865 150.292C33.5814 152.566 31.0046 157.869 28.2896 157.482C26.147 157.177 22.6371 151.465 22.0409 148.879Z" fill="#2F2E41"/>
<path d="M91.8631 238.273C91.24 238.551 90.5651 238.686 89.886 238.667C89.2069 238.648 88.5401 238.476 87.9325 238.164C87.3249 237.851 86.7914 237.404 86.3694 236.856C85.9475 236.308 85.6474 235.671 85.4904 234.991L69.0602 233.282L74.4807 226.433L89.252 229.106C90.3798 228.91 91.5383 229.147 92.5078 229.771C93.4774 230.396 94.1907 231.365 94.5125 232.495C94.8344 233.625 94.7424 234.837 94.2541 235.902C93.7658 236.967 92.9151 237.811 91.8631 238.273Z" fill="#FFB6B6"/>
<path d="M81.7574 235.556L43.4149 231.919L43.3623 231.856L15.3789 198.846C13.5373 195.942 12.8439 192.422 13.4407 189.008C14.0375 185.594 15.8793 182.544 18.5891 180.483C20.0884 179.345 21.8048 178.548 23.6252 178.142C25.4457 177.736 27.3289 177.732 29.1509 178.13C30.973 178.528 32.6926 179.318 34.1965 180.45C35.7004 181.581 36.9545 183.027 37.8763 184.694L55.1118 215.851L82.1797 227.048L81.7574 235.556Z" fill="#3F3D56"/>
<path d="M675.164 393H0.836113C0.614782 392.999 0.402735 392.908 0.246457 392.747C0.0901793 392.586 0.00242615 392.367 0.00242615 392.139C0.00242615 391.911 0.0901793 391.693 0.246457 391.531C0.402735 391.37 0.614782 391.279 0.836113 391.278H675.164C675.386 391.278 675.598 391.369 675.755 391.531C675.912 391.692 676 391.911 676 392.139C676 392.367 675.912 392.586 675.755 392.748C675.598 392.909 675.386 393 675.164 393Z" fill="#CCCCCC"/>
<path d="M557.894 239.143C558.52 239.205 559.152 239.125 559.745 238.908C560.337 238.692 560.877 238.344 561.325 237.89C561.773 237.435 562.119 236.885 562.338 236.278C562.557 235.672 562.644 235.023 562.594 234.377L576.585 228.036L569.91 223.602L557.647 230.303C556.6 230.463 555.646 231.012 554.966 231.848C554.286 232.683 553.927 233.746 553.957 234.836C553.988 235.926 554.405 236.966 555.131 237.76C555.857 238.553 556.84 239.045 557.894 239.143V239.143Z" fill="#FFB6B6"/>
<path d="M566.12 232.936L563.636 224.03L588.785 211.04L603.621 181.61C604.354 180.156 605.389 178.885 606.653 177.889C607.917 176.892 609.379 176.195 610.934 175.845C612.49 175.496 614.101 175.503 615.653 175.867C617.205 176.23 618.661 176.941 619.916 177.949C622.182 179.772 623.652 182.446 624.005 185.384C624.358 188.322 623.565 191.284 621.799 193.62L599.491 223.07L566.12 232.936Z" fill="#E4E4E4"/>
</g>
<defs>
<clipPath id="clip0_3_29">
<rect width="676" height="393" fill="white"/>
</clipPath>
</defs>
</svg>
