<svg width="317" height="329" viewBox="0 0 317 329" fill="none" xmlns="http://www.w3.org/2000/svg">
<path d="M136.341 13.5138C149.99 5.36492 167.01 5.36494 180.659 13.5139L274.697 69.6575C287.763 77.4585 295.765 91.5553 295.765 106.773V221.602C295.765 236.82 287.763 250.917 274.697 258.718L180.659 314.861C167.01 323.01 149.99 323.01 136.341 314.861L42.303 258.718C29.2368 250.917 21.235 236.82 21.235 221.602V106.773C21.235 91.5553 29.2368 77.4584 42.303 69.6575L136.341 13.5138Z" fill="#2F2E41"/>
<g clip-path="url(#clip0_226_47)">
<path d="M79.25 84.8174H237.75V243.317H79.25V84.8174Z" fill="#F7DF1E"/>
<path d="M120.733 207.89L132.862 200.549C135.202 204.698 137.331 208.208 142.437 208.208C147.331 208.208 150.418 206.294 150.418 198.847V148.203H165.312V199.058C165.312 214.485 156.269 221.507 143.075 221.507C131.16 221.507 124.244 215.336 120.732 207.888L120.733 207.89ZM173.403 206.293L185.53 199.272C188.723 204.486 192.873 208.316 200.213 208.316C206.386 208.316 210.321 205.23 210.321 200.974C210.321 195.867 206.278 194.058 199.469 191.08L195.746 189.483C184.999 184.909 177.871 179.163 177.871 167.034C177.871 155.863 186.382 147.351 199.682 147.351C209.151 147.351 215.961 150.649 220.854 159.267L209.257 166.715C206.703 162.141 203.937 160.332 199.682 160.332C195.319 160.332 192.553 163.098 192.553 166.715C192.553 171.184 195.319 172.994 201.702 175.76L205.426 177.355C218.087 182.782 225.215 188.314 225.215 200.761C225.215 214.168 214.683 221.509 200.532 221.509C186.701 221.509 177.764 214.912 173.402 206.294" fill="black"/>
</g>
<defs>
<clipPath id="clip0_226_47">
<rect width="158.5" height="158.5" fill="white" transform="translate(79.25 84.8174)"/>
</clipPath>
</defs>
</svg>
